<?xml version="1.0" encoding="utf-8"?>
<!-- Generator: Adobe Illustrator 22.0.0, SVG Export Plug-In . SVG Version: 6.00 Build 0)  -->
<svg version="1.1" id="Layer_1" xmlns="http://www.w3.org/2000/svg" xmlns:xlink="http://www.w3.org/1999/xlink" x="0px" y="0px"
	 viewBox="0 0 323 78.5" style="enable-background:new 0 0 323 78.5;" xml:space="preserve">
<style type="text/css">
	.st0{enable-background:new    ;}
	.st1{fill:#72EA24;}
	.st2{fill:#FFFFFF;}
	.st3{fill:#8F75FF;}
</style>
<g>
	<g class="st0">
		<path class="st1" d="M209.9,19c1.2,1.2,1.9,3.1,1.9,5.6v9.7h-4.9v-8.9c0-1.3-0.3-2.3-0.8-3c-0.6-0.7-1.3-1-2.4-1
			c-1.1,0-2.1,0.4-2.7,1.1s-1,1.8-1,3.3v8.5h-5v-8.9c0-2.7-1.1-4-3.2-4c-1.1,0-2,0.4-2.7,1.1s-1,1.8-1,3.3v8.5h-4.9V17.4h4.7v1.9
			c0.6-0.7,1.4-1.3,2.3-1.6c0.9-0.4,1.9-0.6,3-0.6c1.2,0,2.3,0.2,3.2,0.7c1,0.5,1.7,1.2,2.3,2.1c0.7-0.9,1.6-1.6,2.6-2
			c1.1-0.5,2.2-0.7,3.5-0.7C207,17.1,208.7,17.8,209.9,19z"/>
		<path class="st1" d="M233.2,17.4v16.9h-4.6v-2c-0.6,0.7-1.4,1.3-2.3,1.7c-0.9,0.4-1.9,0.6-2.9,0.6c-2.2,0-4-0.6-5.3-1.9
			c-1.3-1.3-1.9-3.2-1.9-5.7v-9.5h4.9v8.8c0,2.7,1.1,4.1,3.4,4.1c1.2,0,2.1-0.4,2.8-1.1c0.7-0.8,1.1-1.9,1.1-3.4v-8.3h4.8V17.4z"/>
		<path class="st1" d="M253,19c1.3,1.3,1.9,3.1,1.9,5.6v9.7H250v-8.9c0-1.3-0.3-2.3-0.9-3c-0.6-0.7-1.4-1-2.5-1
			c-1.2,0-2.2,0.4-2.9,1.1c-0.7,0.8-1.1,1.9-1.1,3.4v8.3h-4.9V17.4h4.7v2c0.6-0.7,1.5-1.3,2.4-1.6s2-0.6,3.2-0.6
			C250,17.1,251.7,17.8,253,19z"/>
		<path class="st1" d="M276.7,11v23.3H272v-1.9c-1.2,1.5-3,2.2-5.3,2.2c-1.6,0-3-0.4-4.3-1.1s-2.3-1.7-3-3s-1.1-2.8-1.1-4.6
			c0-1.7,0.4-3.3,1.1-4.6c0.7-1.3,1.7-2.3,3-3s2.7-1.1,4.3-1.1c2.2,0,3.8,0.7,5,2V11H276.7z M270.7,29.2c0.8-0.8,1.2-2,1.2-3.4
			s-0.4-2.6-1.2-3.4c-0.8-0.8-1.8-1.3-3.1-1.3c-1.3,0-2.3,0.4-3.1,1.3c-0.8,0.8-1.2,2-1.2,3.4s0.4,2.6,1.2,3.4
			c0.8,0.8,1.9,1.3,3.1,1.3C268.9,30.5,269.9,30.1,270.7,29.2z"/>
		<path class="st1" d="M284.5,33.4c-1.4-0.7-2.5-1.8-3.3-3.1c-0.8-1.3-1.2-2.8-1.2-4.5s0.4-3.2,1.2-4.5c0.8-1.3,1.9-2.3,3.3-3.1
			s3-1.1,4.8-1.1s3.4,0.4,4.8,1.1s2.5,1.8,3.3,3.1c0.8,1.3,1.2,2.8,1.2,4.5s-0.4,3.2-1.2,4.5s-1.9,2.3-3.3,3.1
			c-1.4,0.7-3,1.1-4.8,1.1S285.9,34.1,284.5,33.4z M292.4,29.2c0.8-0.8,1.2-2,1.2-3.4s-0.4-2.6-1.2-3.4c-0.8-0.8-1.8-1.3-3.1-1.3
			s-2.3,0.4-3.1,1.3c-0.8,0.8-1.2,2-1.2,3.4s0.4,2.6,1.2,3.4s1.9,1.3,3.1,1.3S291.6,30.1,292.4,29.2z"/>
	</g>
	<g class="st0">
		<path class="st2" d="M185,50.7h6.4V60c-1.3,0.9-2.8,1.6-4.5,2.1s-3.4,0.7-5,0.7c-2.3,0-4.4-0.5-6.3-1.5c-1.9-1-3.3-2.3-4.4-4.1
			c-1.1-1.7-1.6-3.7-1.6-5.9s0.5-4.2,1.6-5.9s2.5-3.1,4.4-4.1s4-1.5,6.4-1.5c2.2,0,4.1,0.4,5.8,1.1c1.7,0.7,3.1,1.8,4.2,3.2
			l-4.7,4.2c-1.4-1.6-3-2.4-4.9-2.4c-1.6,0-2.9,0.5-3.9,1.5s-1.4,2.3-1.4,4s0.5,3,1.4,4c1,1,2.2,1.5,3.8,1.5c0.9,0,1.8-0.2,2.7-0.5
			V50.7z"/>
		<path class="st2" d="M209.6,58.5h-8.3l-1.5,3.8h-7.5l9.6-22h7.3l9.6,22H211L209.6,58.5z M207.5,53.1l-2.1-5.5l-2.1,5.5H207.5z"/>
		<path class="st2" d="M239.5,62.3l-0.1-10l-4.8,8h-3.3l-4.8-7.7v9.7h-6.7v-22h6.1l7.2,11.7l7-11.7h6.1l0.1,22H239.5z"/>
		<path class="st2" d="M249.8,40.3h7.4v22h-7.4L249.8,40.3L249.8,40.3z"/>
		<path class="st2" d="M282.4,40.3v22h-6.1l-8.3-10v10h-7.2v-22h6.1l8.3,10v-10H282.4z"/>
		<path class="st2" d="M300.5,50.7h6.4V60c-1.3,0.9-2.8,1.6-4.5,2.1s-3.4,0.7-5,0.7c-2.3,0-4.4-0.5-6.3-1.5s-3.3-2.3-4.4-4.1
			c-1.1-1.7-1.6-3.7-1.6-5.9s0.5-4.2,1.6-5.9s2.5-3.1,4.4-4.1s4-1.5,6.4-1.5c2.2,0,4.1,0.4,5.8,1.1c1.7,0.7,3.1,1.8,4.3,3.2
			l-4.7,4.2c-1.4-1.6-3-2.4-4.9-2.4c-1.6,0-2.9,0.5-3.9,1.5s-1.4,2.3-1.4,4s0.5,3,1.4,4c1,1,2.2,1.5,3.8,1.5c0.9,0,1.8-0.2,2.7-0.5
			L300.5,50.7L300.5,50.7z"/>
	</g>
	<polygon class="st3" points="107.2,28.3 99,20.1 85.2,33.9 71.4,20.1 63.2,28.3 77,42.1 63.2,55.9 71.4,64.1 85.2,50.3 99,64.1 
		107.2,55.9 93.4,42.1 	"/>
	<path class="st2" d="M162,62.3h-55l27.5-41.1L162,62.3z M128.7,50.7h11.5l-5.8-8.6L128.7,50.7z"/>
	<g>
		<path class="st2" d="M35.1,65.1c-12.8,0-23.2-10.4-23.2-23.2s10.4-23.2,23.2-23.2s23.2,10.4,23.2,23.2S47.9,65.1,35.1,65.1
			 M35.1,30.3c-6.4,0-11.6,5.2-11.6,11.6s5.2,11.6,11.6,11.6s11.6-5.2,11.6-11.6C46.7,35.5,41.5,30.3,35.1,30.3"/>
		<rect x="29.2" y="13.1" class="st1" width="11.8" height="27.2"/>
	</g>
</g>
</svg>
